<?xml version="1.0" encoding="UTF-8" standalone="no"?>
<!-- Created with Inkscape (http://www.inkscape.org/) -->

<svg
   xmlns:dc="http://purl.org/dc/elements/1.1/"
   xmlns:cc="http://creativecommons.org/ns#"
   xmlns:rdf="http://www.w3.org/1999/02/22-rdf-syntax-ns#"
   xmlns:svg="http://www.w3.org/2000/svg"
   xmlns="http://www.w3.org/2000/svg"
   xmlns:sodipodi="http://sodipodi.sourceforge.net/DTD/sodipodi-0.dtd"
   xmlns:inkscape="http://www.inkscape.org/namespaces/inkscape"
   id="svg4136"
   version="1.1"
   inkscape:version="0.91 r13725"
   width="481.25"
   height="71.25"
   viewBox="0 0 481.25 71.25"
   sodipodi:docname="web_eye_clinic_logo_new2.svg">
  <metadata
     id="metadata4142">
    <rdf:RDF>
      <cc:Work
         rdf:about="">
        <dc:format>image/svg+xml</dc:format>
        <dc:type
           rdf:resource="http://purl.org/dc/dcmitype/StillImage" />
        <dc:title></dc:title>
      </cc:Work>
    </rdf:RDF>
  </metadata>
  <defs
     id="defs4140" />
  <sodipodi:namedview
     pagecolor="#ffffff"
     bordercolor="#666666"
     borderopacity="1"
     objecttolerance="10"
     gridtolerance="10"
     guidetolerance="10"
     inkscape:pageopacity="0"
     inkscape:pageshadow="2"
     inkscape:window-width="1366"
     inkscape:window-height="706"
     id="namedview4138"
     showgrid="false"
     inkscape:zoom="1.2783021"
     inkscape:cx="177.73216"
     inkscape:cy="-24.950385"
     inkscape:window-x="-8"
     inkscape:window-y="-8"
     inkscape:window-maximized="1"
     inkscape:current-layer="layer4" />
  <flowRoot
     xml:space="preserve"
     id="flowRoot4192"
     style="font-style:normal;font-weight:normal;font-size:40px;line-height:125%;font-family:sans-serif;letter-spacing:0px;word-spacing:0px;fill:#000000;fill-opacity:1;stroke:none;stroke-width:1px;stroke-linecap:butt;stroke-linejoin:miter;stroke-opacity:1"
     transform="translate(-71.970466,-53.97785)"
     inkscape:export-xdpi="70.620003"
     inkscape:export-ydpi="70.620003"><flowRegion
       id="flowRegion4194"><rect
         id="rect4196"
         width="381.68103"
         height="67.485634"
         x="320.83334"
         y="100.01437" /></flowRegion><flowPara
       id="flowPara4198"
       style="font-style:italic;font-variant:normal;font-weight:normal;font-stretch:normal;font-size:22.5px;font-family:'Linux Libertine G';-inkscape-font-specification:'Linux Libertine G Italic';fill:#552200;fill-opacity:1">your home for better vision</flowPara></flowRoot>  <g
     inkscape:groupmode="layer"
     id="layer4"
     inkscape:label="Layer 3"
     style="display:inline">
    <path
       style="display:inline;fill:#0066d0;fill-opacity:1"
       d="m 57.642305,49.92772 c -1.43953,-0.91153 -0.6555,-2.15937 0.56712,-7.16836 3.29497,-13.49926 5.07349,-22.09475 6.06604,-21.04638 1.34364,1.41922 8.18553,23.75416 7.25596,27.03792 -1.19202,4.21084 -1.58121,1.1427 -2.66869,1.56 -2.86492,1.09936 -9.19971,0.89636 -11.22043,-0.38318 z m -12.85722,-9.88403 c -2.9012,-4.35752 -4.37593,-17.67623 -0.74645,-16.40122 1.85078,0.65016 6.32435,17.30302 5.67833,20.45278 -0.33643,1.64036 -3.14882,-1.37345 -4.93188,-4.05156 z m 35.36363,-1.16155 c 2.40915,-10.0088 3.69192,-14.57265 4.78279,-14.57265 1.80392,0 1.70593,9.3089 -0.34959,14.22846 -2.20008,5.26553 -6.82273,10.27145 -4.4332,0.34419 z M 49.892965,26.48368 c -1.77765,-6.87653 -4.14202,-10.45668 -0.61542,-13.30072 3.96588,-3.1982999 9.36352,-5.8633299 15.41458,-5.8633299 5.83044,0 15.56485,4.6344499 16.63874,8.0179599 0.66935,2.10894 -4.74069,22.45201 -6.21156,23.92287 -1.35047,1.35048 -2.0268,-3.00198 -5.47229,-15.92229 -3.86343,-14.4875699 -6.50542,-17.2087699 -8.65,-8.90936 -4.71662,18.25303 -6.12123,24.85109 -7.23719,25.21945 -0.69277,0.22867 -2.32529,-7.20129 -3.86686,-13.16458 z"
       id="path4152-7"
       inkscape:connector-curvature="0"
       sodipodi:nodetypes="sssssssssssssssssssssss"
       inkscape:export-xdpi="70.620003"
       inkscape:export-ydpi="70.620003" />
    <path
       style="display:inline;fill:#552200"
       d="m 49.584645,57.28561 c -3.99772,-1.12084 -11.79536,-5.25103 -18.79141,-9.95326 -6.57701,-4.42058 -16.29895,-10.04297 -21.6042997,-12.49419 -5.30534,-2.45122 -9.64608005,-4.71151 -9.64608005,-5.02286 0,-0.31135 2.95312005,-2.04262 6.56250005,-3.84727 3.60937,-1.80466 11.1951597,-6.62281 16.8572997,-10.70702 5.66214,-4.08421 13.53714,-8.9357699 17.5,-10.7812599 6.42989,-2.99437 15.46095,-4.33615002 20.9552,-4.34458002 6.33453,-0.01 20.82575,-0.42927 31.31957,12.89987992 -7.84082,-3.2023799 -13.21139,-9.6426299 -26.69776,-9.6426299 -8.93089,0 -16.30771,1.37119 -32.43132,13.0130299 -17.6778,12.76402 -17.56412,12.65331 -14.79625,14.40844 1.31683,0.83501 7.78558,5.51716 14.375,10.40477 17.34283,12.86381 21.03099,13.53704 31.35576,13.57468 15.04121,0.0548 22.79829,-6.61833 24.82251,-7.29422 -1.28934,3.45821 -6.64039,6.87187 -11.2783,8.47878 -7.76743,2.691213 -19.4576,3.843623 -28.50242,1.30771 z"
       id="path4158-1-1"
       inkscape:connector-curvature="0"
       sodipodi:nodetypes="sssssssscssssscss"
       inkscape:export-xdpi="70.620003"
       inkscape:export-ydpi="70.620003" />
    <flowRoot
       xml:space="preserve"
       id="flowRoot4149-0"
       style="font-style:normal;font-weight:normal;font-size:40px;line-height:125%;font-family:sans-serif;letter-spacing:0px;word-spacing:0px;fill:#000000;fill-opacity:1;stroke:none;stroke-width:1px;stroke-linecap:butt;stroke-linejoin:miter;stroke-opacity:1"
       transform="translate(101.40375,8.0881301)"
       inkscape:export-xdpi="70.620003"
       inkscape:export-ydpi="70.620003"><flowRegion
         id="flowRegion4151-9"><rect
           id="rect4153-1"
           width="521.0036"
           height="86.833931"
           x="-10.16974"
           y="-12.454782" /></flowRegion><flowPara
         id="flowPara4155-3"
         style="font-style:normal;font-variant:normal;font-weight:normal;font-stretch:normal;font-size:50px;font-family:'Century Gothic';-inkscape-font-specification:'Century Gothic';fill:#0066d0;fill-opacity:1">eb</flowPara></flowRoot>    <flowRoot
       xml:space="preserve"
       id="flowRoot4149-3-4"
       style="font-style:normal;font-weight:normal;font-size:40px;line-height:125%;font-family:sans-serif;letter-spacing:0px;word-spacing:0px;fill:#000000;fill-opacity:1;stroke:none;stroke-width:1px;stroke-linecap:butt;stroke-linejoin:miter;stroke-opacity:1"
       transform="translate(252.34111,8.4150901)"
       inkscape:export-xdpi="70.620003"
       inkscape:export-ydpi="70.620003"><flowRegion
         id="flowRegion4151-2-9"><rect
           id="rect4153-0-4"
           width="521.0036"
           height="86.833931"
           x="-10.16974"
           y="-12.454782" /></flowRegion><flowPara
         id="flowPara4155-8-5"
         style="font-style:normal;font-variant:normal;font-weight:normal;font-stretch:normal;font-size:50px;font-family:'Century Gothic';-inkscape-font-specification:'Century Gothic';fill:#0066d0;fill-opacity:1">clinic.com</flowPara></flowRoot>    <flowRoot
       xml:space="preserve"
       id="flowRoot4149-3-5-3"
       style="font-style:normal;font-weight:normal;font-size:40px;line-height:125%;font-family:sans-serif;letter-spacing:0px;word-spacing:0px;fill:#000000;fill-opacity:1;stroke:none;stroke-width:1px;stroke-linecap:butt;stroke-linejoin:miter;stroke-opacity:1"
       transform="translate(165.52895,9.4381101)"
       inkscape:export-xdpi="70.620003"
       inkscape:export-ydpi="70.620003"><flowRegion
         id="flowRegion4151-2-6-4"><rect
           id="rect4153-0-2-5"
           width="521.0036"
           height="86.833931"
           x="-10.16974"
           y="-12.454782" /></flowRegion><flowPara
         id="flowPara4155-8-8-9"
         style="font-style:normal;font-variant:normal;font-weight:bold;font-stretch:normal;font-size:50px;font-family:'TeX Gyre Adventor';-inkscape-font-specification:'TeX Gyre Adventor Bold';fill:#008c8e;fill-opacity:1">eye</flowPara></flowRoot>    <flowRoot
       xml:space="preserve"
       id="flowRoot4192-4"
       style="font-style:normal;font-weight:normal;font-size:40px;line-height:125%;font-family:sans-serif;letter-spacing:0px;word-spacing:0px;fill:#000000;fill-opacity:1;stroke:none;stroke-width:1px;stroke-linecap:butt;stroke-linejoin:miter;stroke-opacity:1"
       transform="translate(-72.051691,-53.662443)"
       inkscape:export-xdpi="70.620003"
       inkscape:export-ydpi="70.620003"><flowRegion
         id="flowRegion4194-9"><rect
           id="rect4196-0"
           width="381.68103"
           height="67.485634"
           x="320.83334"
           y="100.01437" /></flowRegion><flowPara
         id="flowPara4198-3"
         style="font-style:italic;font-variant:normal;font-weight:normal;font-stretch:normal;font-size:22.5px;font-family:'Linux Libertine G';-inkscape-font-specification:'Linux Libertine G Italic';fill:#552200;fill-opacity:1">your home for better vision</flowPara></flowRoot>  </g>
</svg>
