<?xml version="1.0" encoding="UTF-8" standalone="no"?>
<svg width="83px" height="59px" viewBox="0 0 83 59" version="1.1" xmlns="http://www.w3.org/2000/svg" xmlns:xlink="http://www.w3.org/1999/xlink">
    <!-- Generator: Sketch 42 (36781) - http://www.bohemiancoding.com/sketch -->
    <title>logo-light</title>
    <desc>Created with Sketch.</desc>
    <defs></defs>
    <g id="Page-1" stroke="none" stroke-width="1" fill="none" fill-rule="evenodd">
        <g id="logo-light" fill="#FFFFFF">
            <g id="Group-5-Copy">
                <path d="M33.4958814,0.0630161639 L44.2720741,0.0630161639 L57.6424911,26.7983549 L70.8902437,0.0630161639 L81.6233766,0.0630161639 L81.6233766,43.5856606 L72.9142059,43.5856606 L72.9142059,14.176788 L60.7091005,39.1712209 L54.4532173,39.1712209 L42.1867797,14.176788 L42.1867797,43.5856606 L33.477609,43.5856606 L33.477609,43.5226444 L0.805825243,43.5226444 L0.805825243,0 L33.4958814,0 L33.4958814,0.0630161639 Z M33.477609,8.14495203 L10.4963109,8.14495203 L10.4963109,17.5955834 L26.0468424,17.5955834 L26.0468424,25.7405354 L10.4963109,25.7405354 L10.4963109,35.3776924 L33.477609,35.3776924 L33.477609,8.14495203 Z" id="Combined-Shape-Copy" stroke="#FFFFFF"></path>
                <path d="M0.0960065231,58.1830986 L0.0960065231,51.0990317 L1.47000152,51.0990317 L3.40587075,56.5796105 L5.39839958,51.0990317 L6.62602397,51.0990317 L6.62602397,58.1830986 L5.70058404,58.1830986 L5.70058404,52.4201144 L3.77415807,57.709232 L2.81566672,57.709232 L0.945900334,52.4057548 L0.945900334,58.1830986 L0.0960065231,58.1830986 Z M16.8011415,55.4739217 L15.6112902,52.4201144 L14.4167172,55.4739217 L16.8011415,55.4739217 Z M17.8493439,58.1830986 L17.0891611,56.2206206 L14.1286977,56.2206206 L13.3590716,58.1830986 L12.4383533,58.1830986 L15.2099515,51.0990317 L16.192051,51.0990317 L18.9211544,58.1830986 L17.8493439,58.1830986 Z M30.0169903,57.9916373 C29.17024,58.2373472 28.4320989,58.3602003 27.8025448,58.3602003 C26.6913817,58.3602003 25.8391356,58.0395058 25.2457809,57.3981074 C24.6524261,56.7567089 24.3557532,55.837704 24.3557532,54.6410651 C24.3557532,53.4667635 24.6563608,52.5533428 25.257585,51.9007757 C25.8588091,51.2482087 26.702399,50.92193 27.7883799,50.92193 C28.499776,50.92193 29.239491,51.0288282 30.007547,51.2426276 L30.007547,52.1712148 C29.0443292,51.8393469 28.3061881,51.6734155 27.7931015,51.6734155 C27.0376365,51.6734155 26.4513731,51.9334811 26.0342935,52.4536202 C25.6172139,52.9737592 25.4086772,53.7060912 25.4086772,54.6506382 C25.4086772,55.5856121 25.6321655,56.3123599 26.079149,56.8309034 C26.5261324,57.3494469 27.1525293,57.6087148 27.9583586,57.6087148 C28.2888745,57.6087148 28.6461411,57.5496815 29.0301691,57.4316131 L29.0301691,55.1245048 L30.0169903,55.1245048 L30.0169903,57.9916373 Z M40.1307266,55.4739217 L38.9408753,52.4201144 L37.7463023,55.4739217 L40.1307266,55.4739217 Z M41.178929,58.1830986 L40.4187462,56.2206206 L37.4582828,56.2206206 L36.6886567,58.1830986 L35.7679384,58.1830986 L38.5395366,51.0990317 L39.5216361,51.0990317 L42.2507395,58.1830986 L41.178929,58.1830986 Z M47.6428436,58.1830986 L47.6428436,57.3789613 L51.3965413,51.8505172 L47.8742036,51.8505172 L47.8742036,51.0990317 L52.5863926,51.0990317 L52.5863926,51.8505172 L48.8326949,57.3789613 L52.5863926,57.3789613 L52.5863926,58.1830986 L47.6428436,58.1830986 Z M58.7717309,58.1830986 L58.7717309,51.0990317 L59.7632737,51.0990317 L59.7632737,58.1830986 L58.7717309,58.1830986 Z M66.397167,58.1830986 L66.397167,51.0990317 L67.3698233,51.0990317 L70.8874393,56.5700374 L70.8874393,51.0990317 L71.7373331,51.0990317 L71.7373331,58.1830986 L70.7693985,58.1830986 L67.2470608,52.7120929 L67.2470608,58.1830986 L66.397167,58.1830986 Z M78.3759481,58.1830986 L78.3759481,51.0990317 L82.280738,51.0990317 L82.280738,51.8505172 L79.3674909,51.8505172 L79.3674909,54.1241197 L81.8085748,54.1241197 L81.8085748,54.8660321 L79.3674909,54.8660321 L79.3674909,57.4316131 L82.4837682,57.4316131 L82.4837682,58.1830986 L78.3759481,58.1830986 Z" id="Magazine"></path>
            </g>
        </g>
    </g>
</svg>